<svg xmlns="http://www.w3.org/2000/svg" version="1.1" xmlns:xlink="http://www.w3.org/1999/xlink" xmlns:svgjs="http://svgjs.com/svgjs" width="512" height="512" x="0" y="0" viewBox="0 0 64 64" style="enable-background:new 0 0 512 512" xml:space="preserve" class=""><g><path d="M54 57.5v-2h-4.85c-.018-.039-.042-.075-.062-.113l3.109-.658-.414-1.957-4.505.954a9.434 9.434 0 0 0-1.185-.546l.942-.598-1.072-1.688-2.48 1.575a21.986 21.986 0 0 0-1.514-.233.978.978 0 0 0-.022-.492l-4-12a.998.998 0 0 0-.752-.664L28 37.24V30h6c.266 0 .52-.105.707-.293l7-7a.999.999 0 0 0 0-1.414L39 18.586v-4.942L49.414 8.91a.998.998 0 0 0 0-1.82l-11-5A1.002 1.002 0 0 0 37 3v15.586L31.586 24H26.46A5.97 5.97 0 0 0 28 20c0-3.309-2.691-6-6-6s-6 2.691-6 6a5.97 5.97 0 0 0 1.54 4H15a1 1 0 0 0-.755.345l-5.331 6.137a5.018 5.018 0 0 0-.794 5.31l2.966 6.675a1.002 1.002 0 0 0 1.361.488l3.545-1.772-.991 19.767A1.003 1.003 0 0 0 16 62h5a1 1 0 0 0 .994-.89l1.881-16.875 9.388 1.707 2.379 6.345c-.383.052-.759.111-1.126.181l-2.48-1.575-1.072 1.688.942.598a9.22 9.22 0 0 0-1.185.546l-4.505-.954-.414 1.957 3.109.658c-.02.038-.044.075-.062.113H24v2h4.85c.018.039.042.075.062.113l-3.109.658.414 1.957 4.505-.954c.361.198.754.382 1.185.546l-.942.598 1.072 1.688 2.48-1.575c1.102.209 2.284.34 3.484.386V62h2v-1.082c1.2-.046 2.382-.177 3.484-.386l2.48 1.575 1.072-1.688-.942-.598a9.22 9.22 0 0 0 1.185-.546l4.505.954.414-1.957-3.109-.658c.02-.038.044-.075.062-.113H54zm-23.375-1c0-.859 3.18-2.438 8.375-2.438s8.375 1.578 8.375 2.438-3.18 2.438-8.375 2.438-8.375-1.579-8.375-2.438zM39 4.553 46.583 8 39 11.447zM18 20c0-2.206 1.794-4 4-4s4 1.794 4 4a3.974 3.974 0 0 1-1.051 2.68A1.977 1.977 0 0 1 24 21h-2c0 1.078.441 2.077 1.164 2.807A3.943 3.943 0 0 1 22 24c-2.206 0-4-1.794-4-4zm-3.783 14.257L16 32.474l.001 5.352zm19.962 9.819-11-2a.999.999 0 0 0-1.172.873L20.105 60h-3.054L18 41.06v-11a.999.999 0 0 0-1.707-.707l-4 4a1 1 0 0 0-.188 1.154l2.553 5.105-2.169 1.085-2.541-5.719a3.008 3.008 0 0 1 .476-3.186L15.456 26H32c.266 0 .52-.105.707-.293L38 20.414 39.586 22l-6 6H27a1 1 0 0 0-1 1v9.06a1 1 0 0 0 .804.98l9.431 1.887 3.476 10.425-2.087.521-2.687-7.165a1.004 1.004 0 0 0-.758-.632z" fill="#63ab45" data-original="#000000" class=""></path></g></svg>